<?xml version="1.0" encoding="utf-8"?>
<!-- Generator: Adobe Illustrator 12.0.0, SVG Export Plug-In . SVG Version: 6.00 Build 51448)  -->
<!DOCTYPE svg PUBLIC "-//W3C//DTD SVG 1.1//EN" "http://www.w3.org/Graphics/SVG/1.1/DTD/svg11.dtd" [
	<!ENTITY ns_svg "http://www.w3.org/2000/svg">
	<!ENTITY ns_xlink "http://www.w3.org/1999/xlink">
]>
<svg  version="1.1" xmlns="&ns_svg;" xmlns:xlink="&ns_xlink;" width="511.688" height="176.843" viewBox="0 0 511.688 176.843"
	 overflow="visible" enable-background="new 0 0 511.688 176.843" xml:space="preserve">
<g id="圖層_2">
</g>
<g id="圖層_1">
	<path d="M496.284,0h-264.44c-8.494,0-15.404,6.911-15.404,15.404v146.035c0,8.493,6.91,15.404,15.404,15.404h264.44
		c8.492,0,15.403-6.911,15.403-15.404V15.404C511.688,6.911,504.776,0,496.284,0z M498.226,161.439c0,1.071-0.871,1.941-1.941,1.941
		h-264.44c-1.07,0-1.941-0.87-1.941-1.941V15.404c0-1.071,0.871-1.942,1.941-1.942h264.44c1.07,0,1.941,0.871,1.941,1.942V161.439z
		 M315.002,73.074l-28.149-33.453l-28.149,0.408l-0.816,95.87l28.149-0.407l0.816-54.667l28.149,35.083l28.149-35.083l0.408,54.667
		l28.149-0.408l0.407-95.462h-27.741L315.002,73.074z M450.444,39.213l-27.74,0.408L422.295,89.8l-28.557-0.816l42.836,47.732
		l42.836-47.732l-28.966,0.409V39.213z"/>
	<g>
		<polygon fill="#D010B1" points="0,156.946 91.321,156.946 91.321,124.038 28.795,124.038 28.795,104.292 90.499,104.292 
			90.499,74.674 27.972,74.674 27.972,53.695 89.676,53.695 89.676,21.198 0,21.198 		"/>
		<polygon opacity="0.7" fill="#FFFF00" points="126.287,124.038 192.927,21.198 89.265,21.198 67.051,53.695 127.521,53.695 
			61.704,156.535 177.707,156.535 199.92,124.038 		"/>
	</g>
</g>
</svg>
